PathFileType	4	(X/Y/Z)	c:/Users/goper/Files/vsCode/490R/osim_files/C08/C08_SSWS_06.trc
DataRate	CameraRate	NumFrames	NumMarkers	Units                	OrigDataRate	OrigDataStartFrame	OrigNumFrames
250.00	250.00	10	36	mm	250.0	1717	2747
                Frame#	Time	LPSIS			LASIS			LTH1			LTH2			LTH3			LTH4			LLFE			LMFE			LSH1			LSH2			LSH3			LSH4			LLMAL			LMMAL			LCAL			LMTP5			LTOE			LMTP1			RPSIS			RASIS			RTH1			RTH2			RTH3			RTH4			RLFE			RMFE			RSH1			RSH2			RSH3			RSH4			RLMAL			RMMAL			RCAL			RMTP1			RTOE			RMTP5		
		X1	Y1	Z1	X2	Y2	Z2	X3	Y3	Z3	X4	Y4	Z4	X5	Y5	Z5	X6	Y6	Z6	X7	Y7	Z7	X8	Y8	Z8	X9	Y9	Z9	X10	Y10	Z10	X11	Y11	Z11	X12	Y12	Z12	X13	Y13	Z13	X14	Y14	Z14	X15	Y15	Z15	X16	Y16	Z16	X17	Y17	Z17	X18	Y18	Z18	X19	Y19	Z19	X20	Y20	Z20	X21	Y21	Z21	X22	Y22	Z22	X23	Y23	Z23	X24	Y24	Z24	X25	Y25	Z25	X26	Y26	Z26	X27	Y27	Z27	X28	Y28	Z28	X29	Y29	Z29	X30	Y30	Z30	X31	Y31	Z31	X32	Y32	Z32	X33	Y33	Z33	X34	Y34	Z34	X35	Y35	Z35	X36	Y36	Z36

1717	6.86400	-1726.18457	1027.25134	237.76114	-1926.57837	983.72034	337.30399	-1779.32458	719.48541	401.34988	-1763.78760	644.73169	383.02408	-1749.50671	572.27563	374.58377	-1842.92175	635.97650	368.45435	-1734.83142	526.01520	366.22168	-1747.46362	511.46576	239.16025	-1626.80627	442.07877	374.46683	-1606.77869	398.58490	374.36044	-1679.69739	410.69156	375.83035	-1654.05945	374.91296	372.75229	-1470.62756	157.54547	319.79922	-1496.69336	156.50555	233.74837	-1402.98364	168.59407	264.41742	-1539.21387	46.02420	347.54102	-1599.05652	51.06959	285.44730	-1563.88867	44.01202	233.36389	-1730.17310	1022.72253	178.06975	-1934.30627	993.85352	100.34769	-1929.90393	732.80621	37.96423	-1955.01489	659.00305	55.12374	-1979.24158	582.43646	69.37784	-2022.52148	685.21118	85.68736	-2006.61755	521.73633	81.15951	-1999.19080	510.84677	206.89926	-1972.52747	428.67700	62.09861	-1989.60181	386.65475	57.40157	-2032.77173	442.18304	73.09930	-2039.69409	399.86426	65.68994	-2050.32666	94.87508	109.88940	-2079.40771	102.01743	198.80722	-1998.65479	69.80997	181.70441	-2212.71631	60.55006	186.86929	-2225.51440	85.26802	133.46140	-2179.52930	53.49741	75.35161
1718	6.86800	-1731.69580	1027.46497	237.04796	-1932.07166	984.04480	336.59644	-1786.04773	719.03143	400.74692	-1771.31592	644.09448	382.79132	-1757.49829	571.48077	374.52942	-1850.43420	635.81042	368.61182	-1743.20337	525.18994	366.40906	-1756.54980	510.24478	239.70494	-1634.50073	442.86206	374.44159	-1613.85632	399.59866	374.34729	-1686.91626	410.75165	376.32770	-1660.92932	375.43307	373.06238	-1474.66052	160.42699	320.00308	-1500.90234	158.72147	234.14806	-1407.68481	173.24390	264.48636	-1540.32947	46.80940	347.55273	-1600.08521	50.93575	285.53925	-1564.82544	44.33257	233.59886	-1735.75903	1023.15088	177.18997	-1940.12402	994.40820	100.09474	-1935.98853	733.57886	37.60717	-1960.46948	659.85492	54.62746	-1984.62622	583.31458	68.94664	-2027.90771	685.99713	85.74111	-2011.77734	522.30389	81.01007	-2003.55151	511.73785	206.50374	-1977.51172	428.94159	61.28207	-1993.72546	387.16278	56.64652	-2037.25952	442.26465	72.89722	-2043.70239	399.98599	65.37141	-2050.68457	95.12753	109.90691	-2080.07104	101.83864	198.78842	-1999.01270	70.08395	181.69908	-2213.31348	59.38146	186.92249	-2226.44458	83.54324	133.33919	-2179.99658	52.58832	75.32951
1719	6.87200	-1737.13574	1027.72522	236.33887	-1937.55444	984.41699	335.81934	-1792.94214	718.57440	400.15970	-1778.78369	643.42419	382.53375	-1765.71960	570.64307	374.55463	-1858.21887	635.65509	369.16315	-1751.81531	524.35968	366.69986	-1765.88721	508.93430	240.33679	-1642.55200	443.56659	374.34351	-1619.75305	399.84457	371.75967	-1694.41785	410.76941	376.89310	-1666.28638	374.24744	374.72931	-1479.06787	163.38203	320.20596	-1505.48352	160.98778	234.45340	-1412.63879	178.09573	264.51666	-1541.56677	47.80526	347.51001	-1601.86792	50.97453	285.59235	-1566.01392	44.81762	233.36403	-1741.30652	1023.61554	176.35687	-1945.83435	995.00305	99.82880	-1941.66589	734.58618	36.92863	-1966.14771	660.90839	54.11058	-1990.25818	584.36249	68.48521	-2033.45508	687.07690	85.60949	-2016.94531	522.90912	80.81667	-2008.15234	512.78473	206.07080	-1981.91931	429.65710	60.45024	-1997.79651	387.73004	55.88715	-2041.68982	442.38852	72.59239	-2047.71094	400.16763	65.08401	-2051.50098	95.03571	110.01785	-2080.65430	101.74218	198.80244	-1999.34961	70.33574	181.65085	-2213.74756	57.98627	186.76746	-2227.42578	81.90684	133.39624	-2180.53760	51.90072	75.37152
1720	6.87600	-1742.61047	1027.97607	235.58476	-1942.98572	984.91437	335.09308	-1799.94995	718.09070	399.57309	-1786.53394	642.65790	382.41843	-1774.10046	569.71576	374.67804	-1866.17859	635.55200	369.49307	-1760.68384	523.47614	367.04327	-1775.44470	507.55042	241.01450	-1650.74561	444.16943	374.95572	-1627.35681	401.61465	372.53308	-1702.18469	410.82022	377.48923	-1673.62622	374.60522	375.28693	-1483.76746	166.40657	320.43921	-1510.30103	163.33698	234.73680	-1418.04321	183.08545	264.51685	-1542.90613	48.91027	347.47906	-1602.56934	50.81636	285.63040	-1567.21619	45.45103	233.47601	-1746.77588	1024.14136	175.55185	-1951.48730	995.64520	99.54440	-1947.52563	735.71118	36.17844	-1971.94397	662.03265	53.61585	-1996.16113	585.53308	67.89886	-2039.11597	688.33960	85.39776	-2022.01978	523.50140	80.61588	-2012.95581	513.83331	205.62347	-1986.30212	430.38379	59.61189	-2001.68945	388.37296	55.11653	-2046.12415	442.61865	72.26858	-2051.51514	400.39111	64.84055	-2052.22412	95.03584	110.11880	-2080.98950	101.79716	199.74039	-1999.63354	70.58041	181.59917	-2214.22803	57.02893	187.10448	-2228.34961	80.55058	133.56555	-2181.00024	51.48926	75.52311
1721	6.88000	-1748.03064	1028.23987	234.89946	-1948.28149	985.37366	334.30069	-1807.01709	717.59424	399.02206	-1794.54590	641.88733	382.27975	-1782.65967	568.80920	374.89258	-1874.01624	635.41125	369.50287	-1769.66614	522.28833	366.88721	-1785.30969	506.13943	241.71753	-1659.33704	444.75537	374.84229	-1635.37390	402.51361	372.65695	-1710.24719	410.78207	378.16031	-1681.23962	374.94431	375.89557	-1488.75598	169.52554	320.65454	-1515.42102	165.81468	235.02037	-1423.78906	188.28258	264.48398	-1544.28699	50.19790	347.42038	-1604.59021	50.83482	285.65039	-1568.74622	46.01666	233.35431	-1752.16699	1024.70300	174.75824	-1957.05237	996.35400	99.25098	-1953.34351	736.87476	35.49601	-1977.83191	663.19305	53.18192	-2002.03979	586.83997	67.21243	-2044.88757	689.62195	85.13035	-2027.02466	524.10602	80.35017	-2017.35437	514.88062	205.68640	-1990.62244	431.16046	58.79573	-2005.45044	389.03876	54.35574	-2050.42676	442.82700	71.94769	-2055.31201	400.56091	64.42406	-2052.89966	95.09008	110.20846	-2081.45215	101.77732	199.80594	-1999.90027	70.82241	181.53935	-2214.62622	55.97359	187.35640	-2229.23438	79.40324	133.97624	-2181.46753	51.18826	75.78635
1722	6.88400	-1753.41101	1028.55298	234.26921	-1953.57446	985.89075	333.52731	-1814.31201	717.02502	398.51703	-1802.53601	641.05499	382.12753	-1791.39380	567.85297	375.17322	-1882.08679	635.29388	369.94193	-1778.86914	521.27002	367.45447	-1795.36377	504.65305	242.47620	-1668.14160	445.29968	374.73987	-1643.65381	403.36502	372.81238	-1718.48694	410.68210	378.81281	-1689.02808	375.26657	376.50455	-1494.08350	172.71207	320.88782	-1520.78015	168.41243	235.22421	-1429.85205	193.65549	264.46103	-1545.77344	51.72528	347.36121	-1605.38916	50.63426	285.73563	-1570.22205	46.91655	233.64474	-1757.53027	1025.30298	174.06538	-1962.60950	997.14111	98.91206	-1959.40649	738.18762	34.78944	-1983.73743	664.41229	52.67071	-2007.86438	588.07422	66.58651	-2050.66016	690.93518	84.94554	-2031.89319	524.65796	80.06781	-2022.68848	515.87164	204.76141	-1994.83374	431.92972	58.03217	-2009.40540	389.43475	53.86179	-2054.78833	442.97202	71.67489	-2061.19727	399.19354	65.96348	-2053.46533	95.23853	110.24355	-2081.84302	101.74495	199.89403	-2000.13269	71.04581	181.48210	-2214.93115	54.71656	187.51677	-2229.52612	78.33881	135.37236	-2181.92554	50.88623	76.00594
1723	6.88800	-1758.69727	1028.87463	233.65839	-1958.75134	986.44385	332.74286	-1821.53748	716.46179	398.04422	-1810.53735	640.23016	382.14062	-1800.25623	566.90070	375.57098	-1890.32385	635.25696	370.34012	-1788.06348	520.31610	368.25388	-1805.70032	503.11087	243.25089	-1677.18457	445.83078	375.03198	-1653.53162	404.20178	374.84262	-1727.00879	410.57306	379.49536	-1697.09338	375.52753	377.08063	-1498.88074	176.64798	320.43509	-1526.35632	171.17484	235.34630	-1436.29211	199.24991	264.46805	-1547.34106	53.52142	347.30267	-1607.10608	50.63047	285.75964	-1571.94482	48.12692	233.62398	-1762.31580	1026.11023	173.26375	-1968.05432	997.95129	98.58726	-1965.39038	739.42877	34.12094	-1988.93591	664.86670	53.94735	-2013.63318	589.34991	66.08092	-2056.30884	692.16089	84.82758	-2036.57458	525.15881	79.71902	-2027.51221	516.76483	204.38420	-1998.92102	432.68439	57.34381	-2013.23169	390.09119	53.40067	-2058.87817	443.22003	71.25768	-2065.00293	399.32559	65.68003	-2053.94971	95.43916	110.27008	-2082.20996	101.71719	199.92798	-2000.37268	71.29571	181.41391	-2215.27319	53.87442	187.88065	-2230.16577	77.18044	135.79237	-2182.31592	50.56890	76.17941
1724	6.89200	-1763.91223	1029.20190	233.12816	-1963.25671	986.50330	332.07327	-1828.92151	715.88531	397.59906	-1818.82788	639.41443	382.18884	-1809.23413	565.91406	376.03247	-1898.58435	635.09778	370.82141	-1797.46802	519.33826	368.97925	-1816.29285	501.58450	244.10097	-1686.42761	446.40564	375.44324	-1662.37573	405.06345	375.16714	-1735.77991	410.42667	379.99252	-1705.39832	375.78790	377.65338	-1504.59998	180.27487	320.65359	-1532.08118	174.11317	235.41393	-1443.02051	204.97910	264.54233	-1549.11401	55.51735	347.18988	-1608.90002	50.60341	285.87842	-1573.70276	49.27552	233.42226	-1768.01147	1026.61780	172.77026	-1973.37231	998.84723	98.23835	-1971.36853	740.62439	33.46510	-1995.57178	666.44055	53.01263	-2019.13110	590.46820	65.56175	-2061.86841	693.21527	84.75322	-2041.19775	525.58325	79.38580	-2031.71887	517.49677	204.29059	-2002.94666	433.37009	56.75719	-2016.88452	390.67334	52.85615	-2062.86060	443.43387	70.92236	-2068.77905	399.50354	65.42089	-2054.41064	95.63284	110.24905	-2082.65039	101.63637	199.97237	-2000.63049	71.48321	181.28906	-2215.57422	52.85412	188.03188	-2231.23169	76.44534	135.50835	-2182.64209	50.24085	76.24090
1725	6.89600	-1769.19299	1029.49731	232.61412	-1969.83142	987.57037	330.99100	-1836.13342	715.28479	397.15875	-1827.19043	638.57300	382.29929	-1818.33435	564.90680	376.55096	-1907.12183	635.06732	371.59775	-1807.09448	518.30371	369.73746	-1826.97998	499.95819	244.87706	-1695.82056	446.88602	375.84247	-1671.38989	405.93762	375.62158	-1744.66272	410.31647	380.82346	-1713.90527	376.07568	378.25632	-1510.55750	184.02634	320.91275	-1538.02405	177.14861	235.46126	-1450.12451	210.80469	264.61826	-1550.96350	57.78573	347.07632	-1610.81458	50.61490	286.01974	-1575.74292	50.80341	233.62201	-1773.18494	1027.25806	172.23999	-1978.72864	999.80524	97.92720	-1977.17554	741.73370	32.81174	-2001.08447	667.36890	52.46449	-2024.36279	591.45209	64.96704	-2066.92920	693.86609	84.71233	-2045.63904	525.94244	79.03490	-2036.76672	518.08856	203.55424	-2006.90930	434.03061	56.19608	-2020.55945	391.21786	52.33077	-2066.79663	443.62915	70.67612	-2072.45923	399.65930	65.15292	-2054.88501	95.81750	110.21880	-2083.06958	101.56705	200.01227	-2000.88281	71.69476	181.23045	-2215.84790	51.81710	187.85181	-2231.74805	75.36690	135.76288	-2182.96069	49.87638	76.20255
1726	6.90000	-1774.34644	1029.84094	232.16267	-1974.84705	988.09485	330.26013	-1843.86072	714.69775	396.90649	-1835.48743	637.71539	382.50238	-1827.53979	563.95508	377.10712	-1915.56592	635.04749	372.08075	-1816.73816	517.20978	370.47833	-1838.17859	498.34778	245.46971	-1705.40833	447.36584	376.30270	-1680.43652	406.87973	375.99329	-1753.78760	410.22607	381.53946	-1722.34985	376.34866	378.90149	-1516.75806	187.81075	321.20618	-1544.12280	180.27705	235.54417	-1457.47266	216.72292	264.68311	-1553.07898	60.24989	346.95068	-1612.98914	50.75213	286.23495	-1578.04749	52.64109	233.88268	-1778.37585	1027.85425	171.74788	-1983.96875	1000.78400	97.50831	-1983.24402	742.59399	31.89661	-2006.43127	668.18933	51.82605	-2029.27417	592.28735	64.30824	-2072.39111	694.72601	84.52319	-2049.89478	526.25543	78.61977	-2040.49133	518.41101	203.48993	-2010.78979	434.56738	55.65797	-2024.17371	391.72858	51.83376	-2070.63672	443.76331	70.49813	-2076.04663	399.77655	64.92987	-2055.35132	96.00334	110.22782	-2083.51294	101.55172	200.05054	-2001.03784	72.01636	181.17613	-2216.29443	51.35614	187.90778	-2232.35913	74.49243	135.79897	-2183.24854	49.50495	76.10798
